<?xml version="1.0" standalone="no"?>
<!DOCTYPE svg PUBLIC "-//W3C//DTD SVG 20010904//EN"
 "http://www.w3.org/TR/2001/REC-SVG-20010904/DTD/svg10.dtd">
<svg version="1.0" xmlns="http://www.w3.org/2000/svg"
 width="453.000000pt" height="67.000000pt" viewBox="0 0 453.000000 67.000000"
 preserveAspectRatio="xMidYMid meet">
<metadata>
Created by potrace 1.16, written by Peter Selinger 2001-2019
</metadata>
<g transform="translate(0.000000,67.000000) scale(0.100000,-0.100000)"
fill="#1a3c2a" stroke="none">
<path d="M205 622 c-47 -23 -99 -75 -114 -115 -6 -16 -11 -48 -11 -71 0 -35
-4 -45 -20 -49 -32 -8 -27 -55 6 -63 27 -7 27 -7 21 -90 -5 -81 -8 -90 -52
-150 -15 -21 4 -33 70 -45 75 -14 177 -4 207 21 23 18 23 18 0 43 -26 27 -46
136 -35 189 5 26 8 28 59 28 50 0 54 2 54 23 0 35 -19 47 -72 47 -42 0 -49 3
-63 30 -17 33 -20 122 -5 151 7 12 21 19 41 19 35 0 48 -26 41 -83 -6 -51 18
-77 70 -77 52 0 96 24 104 57 10 40 -23 93 -75 122 -61 34 -170 40 -226 13z"/>
<path d="M1435 601 c-44 -21 -89 -48 -100 -60 -20 -23 -20 -23 5 -64 19 -34
25 -60 28 -132 5 -106 -10 -220 -33 -244 -39 -44 0 -65 126 -65 73 -1 101 3
121 16 22 15 28 15 38 3 17 -21 58 -26 131 -17 37 5 99 4 141 -1 65 -9 79 -7
120 11 49 21 104 85 114 131 11 51 17 57 24 24 12 -52 43 -96 92 -129 117 -79
269 -41 332 83 18 36 21 73 6 73 -5 0 -30 -15 -54 -34 -68 -51 -138 -56 -175
-12 -12 14 -8 16 33 16 62 0 104 19 144 64 38 44 41 81 10 121 -48 62 -179 85
-263 46 -69 -32 -125 -103 -125 -161 0 -34 -17 -14 -24 28 -3 21 -19 57 -35
79 -49 68 -130 91 -207 58 -36 -15 -36 -15 -33 93 4 104 3 107 -18 110 -28 4
-182 -68 -208 -97 -20 -23 -20 -23 5 -64 19 -34 25 -60 28 -132 5 -108 -11
-220 -34 -246 -16 -18 -17 -18 -35 2 -10 12 -22 38 -26 58 -9 43 -10 213 -3
366 5 110 5 110 -20 112 -14 2 -61 -14 -105 -36z m953 -231 c5 -34 -14 -94
-38 -115 -20 -18 -20 -18 -20 32 0 66 17 115 39 111 9 -2 18 -14 19 -28z
m-451 -7 c27 -41 26 -191 -3 -229 -52 -70 -78 -53 -89 56 -8 83 1 165 22 185
22 23 51 18 70 -12z"/>
<path d="M2735 488 c-51 -51 -102 -100 -115 -109 -27 -18 -22 -48 9 -56 16 -4
19 -18 23 -114 5 -122 18 -147 85 -170 45 -14 130 -4 171 21 36 22 43 50 12
50 -32 0 -50 41 -57 129 -6 81 -6 81 56 81 57 0 61 1 61 23 0 34 -19 47 -67
47 -43 0 -43 0 -40 93 2 90 2 92 -22 95 -19 3 -43 -15 -116 -90z"/>
<path d="M3120 491 c-47 -49 -95 -94 -108 -101 -31 -15 -27 -64 6 -68 21 -3
22 -7 22 -113 0 -108 1 -111 28 -139 35 -35 97 -46 167 -30 52 12 85 34 85 57
0 7 -9 13 -20 13 -32 0 -50 49 -50 135 0 75 0 75 56 75 55 0 55 0 52 33 -3 31
-4 32 -55 35 -29 2 -53 6 -53 10 0 4 5 40 10 81 7 53 7 78 -1 88 -25 29 -54
13 -139 -76z"/>
<path d="M542 435 c-18 -8 -47 -24 -64 -36 -33 -24 -78 -109 -78 -149 0 -161
186 -266 335 -189 55 28 101 85 111 137 8 41 -5 41 -54 3 -68 -53 -140 -62
-177 -21 -15 17 -13 18 44 22 69 5 122 39 149 95 16 33 15 36 -3 71 -40 72
-173 106 -263 67z m104 -61 c9 -35 -25 -118 -50 -122 -17 -4 -18 1 -12 47 9
68 22 101 41 101 8 0 18 -12 21 -26z"/>
<path d="M995 437 c-140 -64 -177 -225 -77 -330 112 -118 307 -88 376 58 28
59 1 89 -40 44 -23 -26 -90 -58 -121 -59 -12 0 -35 11 -50 25 -28 24 -28 24
20 25 78 0 146 46 170 113 11 28 -21 84 -61 109 -44 27 -171 36 -217 15z m105
-87 c0 -42 -5 -55 -31 -82 -30 -33 -30 -33 -26 28 5 68 20 104 42 104 11 0 15
-13 15 -50z"/>
<path d="M3505 437 c-140 -64 -177 -225 -77 -330 112 -118 307 -88 376 58 28
59 1 89 -40 44 -23 -26 -90 -58 -121 -59 -12 0 -35 11 -50 25 -28 24 -28 24
20 25 78 0 146 46 170 113 11 28 -21 84 -61 109 -44 27 -171 36 -217 15z m105
-87 c0 -42 -5 -55 -31 -82 -30 -33 -30 -33 -26 28 5 68 20 104 42 104 11 0 15
-13 15 -50z"/>
<path d="M3952 420 c-119 -55 -145 -88 -104 -133 13 -14 17 -36 17 -87 0 -51
-4 -73 -17 -87 -24 -27 -22 -50 5 -65 29 -16 205 -16 235 0 28 16 28 25 0 62
-18 24 -23 47 -25 118 -4 88 7 130 35 140 7 2 33 -17 58 -42 54 -55 83 -59
125 -16 24 23 30 37 27 62 -6 68 -122 103 -195 59 -31 -19 -31 -19 -36 0 -7
27 -50 24 -125 -11z"/>
<path d="M4393 212 c-27 -4 -73 -56 -73 -83 0 -50 49 -99 100 -99 10 0 32 12
49 26 71 59 16 171 -76 156z"/>
</g>
</svg>
